<svg width="99" height="19" viewBox="0 0 99 19" fill="none" xmlns="http://www.w3.org/2000/svg">
<path d="M4.96 3.44C5.64 3.44 6.26667 3.57333 6.84 3.84C7.42667 4.09333 7.91333 4.44 8.3 4.88V0H33.5034V2.01531L11.02 1.76001V14.76H8.4L8.34 13.5C7.95333 13.9533 7.46667 14.32 6.88 14.6C6.30667 14.8667 5.66667 15 4.96 15C4 15 3.14667 14.7467 2.4 14.24C1.65333 13.72 1.06667 13.0267 0.64 12.16C0.213333 11.28 0 10.3 0 9.22C0 8.12667 0.213333 7.14667 0.64 6.28C1.06667 5.4 1.65333 4.70667 2.4 4.2C3.14667 3.69333 4 3.44 4.96 3.44ZM5.64 12.72C6.25333 12.72 6.79333 12.54 7.26 12.18C7.74 11.8067 8.08667 11.3133 8.3 10.7V7.72C8.08667 7.09333 7.74 6.60667 7.26 6.26C6.79333 5.9 6.25333 5.72 5.64 5.72C5.08 5.72 4.58 5.87333 4.14 6.18C3.7 6.47333 3.36 6.88667 3.12 7.42C2.88 7.94 2.76 8.54 2.76 9.22C2.76 9.88667 2.88 10.4867 3.12 11.02C3.36 11.54 3.7 11.9533 4.14 12.26C4.58 12.5667 5.08 12.72 5.64 12.72Z" fill="#222222"/>
<path d="M19.1678 14.76L19.0678 12.6V7.38C19.0678 6.76667 18.8545 6.28667 18.4278 5.94C18.0011 5.59333 17.4145 5.42 16.6678 5.42C15.9345 5.42 15.3411 5.58 14.8878 5.9C14.4345 6.20667 14.1745 6.64 14.1078 7.2H11.4478C11.5145 6.41333 11.7745 5.74 12.2278 5.18C12.6945 4.62 13.3145 4.19333 14.0878 3.9C14.8611 3.59333 15.7545 3.44 16.7678 3.44C17.7945 3.44 18.6811 3.6 19.4278 3.92C20.1878 4.24 20.7745 4.70667 21.1878 5.32C21.6011 5.92 21.8078 6.66 21.8078 7.54V14.76H19.1678ZM15.4678 15C14.7345 15 14.0878 14.86 13.5278 14.58C12.9811 14.3 12.5545 13.9133 12.2478 13.42C11.9411 12.9267 11.7878 12.3533 11.7878 11.7C11.7878 10.5667 12.2278 9.68667 13.1078 9.06C13.9878 8.42 15.2145 8.1 16.7878 8.1H19.3678V10.04H16.7078C16.0145 10.04 15.4678 10.1667 15.0678 10.42C14.6678 10.6733 14.4678 11.0467 14.4678 11.54C14.4678 11.9 14.6145 12.2067 14.9078 12.46C15.2011 12.7 15.6011 12.82 16.1078 12.82C16.7878 12.82 17.3945 12.64 17.9278 12.28C18.4611 11.92 18.9011 11.4333 19.2478 10.82L19.5478 12.72C19.2011 13.48 18.6811 14.0533 17.9878 14.44C17.2945 14.8133 16.4545 15 15.4678 15Z" fill="#222222"/>
<path d="M30.4556 8.96V7.52C30.4556 6.98667 30.309 6.56 30.0156 6.24C29.7223 5.90667 29.289 5.74 28.7156 5.74C28.0356 5.74 27.409 5.98 26.8356 6.46C26.2756 6.92667 25.769 7.7 25.3156 8.78L24.9956 6.36C25.329 5.72 25.7023 5.18667 26.1156 4.76C26.5423 4.32 27.009 3.99333 27.5156 3.78C28.0356 3.55333 28.609 3.44 29.2356 3.44C30.3956 3.44 31.349 3.78667 32.0956 4.48C32.8423 5.17333 33.2156 6.18667 33.2156 7.52V8.96H30.4556ZM23.0356 14.76V3.68H25.6556L25.7956 5.84V14.76H23.0356Z" fill="#222222"/>
<path d="M33.5034 14.76V0H36.2634V5L36.0834 8.24L38.2034 5.8L40.3834 3.68H43.9234L36.2634 11.08V14.76H33.5034ZM40.9234 14.76L37.2634 8.24L39.7634 7.2L44.1034 14.76H40.9234Z" fill="#222222"/>
<path d="M49.22 3.44C50.1933 3.44 51.0533 3.69333 51.8 4.2C52.5467 4.70667 53.1267 5.4 53.54 6.28C53.9667 7.14667 54.18 8.12667 54.18 9.22C54.18 10.3 53.9667 11.28 53.54 12.16C53.1267 13.0267 52.5467 13.72 51.8 14.24C51.0533 14.7467 50.1933 15 49.22 15C48.54 15 47.9133 14.8733 47.34 14.62C46.78 14.3533 46.3067 14 45.92 13.56V18.32H43.16V3.68H45.82L45.88 4.9C46.2667 4.44667 46.7467 4.09333 47.32 3.84C47.8933 3.57333 48.5267 3.44 49.22 3.44ZM48.54 12.72C49.1133 12.72 49.6133 12.5667 50.04 12.26C50.48 11.9533 50.82 11.54 51.06 11.02C51.3133 10.4867 51.44 9.88667 51.44 9.22C51.44 8.54 51.3133 7.94 51.06 7.42C50.82 6.88667 50.48 6.47333 50.04 6.18C49.6133 5.87333 49.1133 5.72 48.54 5.72C47.94 5.72 47.4067 5.9 46.94 6.26C46.4733 6.60667 46.1333 7.08 45.92 7.68V10.74C46.1333 11.34 46.4733 11.82 46.94 12.18C47.4067 12.54 47.94 12.72 48.54 12.72Z" fill="#222222"/>
<path d="M61.9078 14.76L61.8078 12.6V7.38C61.8078 6.76667 61.5945 6.28667 61.1678 5.94C60.7411 5.59333 60.1545 5.42 59.4078 5.42C58.6745 5.42 58.0811 5.58 57.6278 5.9C57.1745 6.20667 56.9145 6.64 56.8478 7.2H54.1878C54.2545 6.41333 54.5145 5.74 54.9678 5.18C55.4345 4.62 56.0545 4.19333 56.8278 3.9C57.6011 3.59333 58.4945 3.44 59.5078 3.44C60.5345 3.44 61.4212 3.6 62.1678 3.92C62.9278 4.24 63.5145 4.70667 63.9278 5.32C64.3412 5.92 64.5478 6.66 64.5478 7.54V14.76H61.9078ZM58.2078 15C57.4745 15 56.8278 14.86 56.2678 14.58C55.7211 14.3 55.2945 13.9133 54.9878 13.42C54.6811 12.9267 54.5278 12.3533 54.5278 11.7C54.5278 10.5667 54.9678 9.68667 55.8478 9.06C56.7278 8.42 57.9545 8.1 59.5278 8.1H62.1078V10.04H59.4478C58.7545 10.04 58.2078 10.1667 57.8078 10.42C57.4078 10.6733 57.2078 11.0467 57.2078 11.54C57.2078 11.9 57.3545 12.2067 57.6478 12.46C57.9411 12.7 58.3411 12.82 58.8478 12.82C59.5278 12.82 60.1345 12.64 60.6678 12.28C61.2011 11.92 61.6412 11.4333 61.9878 10.82L62.2878 12.72C61.9411 13.48 61.4212 14.0533 60.7278 14.44C60.0345 14.8133 59.1945 15 58.2078 15Z" fill="#222222"/>
<path d="M73.1956 8.96V7.52C73.1956 6.98667 73.049 6.56 72.7556 6.24C72.4623 5.90667 72.029 5.74 71.4556 5.74C70.7756 5.74 70.149 5.98 69.5756 6.46C69.0156 6.92667 68.509 7.7 68.0556 8.78L67.7356 6.36C68.069 5.72 68.4423 5.18667 68.8556 4.76C69.2823 4.32 69.749 3.99333 70.2556 3.78C70.7756 3.55333 71.349 3.44 71.9756 3.44C73.1356 3.44 74.089 3.78667 74.8356 4.48C75.5823 5.17333 75.9556 6.18667 75.9556 7.52V8.96H73.1956ZM65.7756 14.76V3.68H68.3956L68.5356 5.84V14.76H65.7756Z" fill="#222222"/>
<path d="M82.6234 14.76C81.9034 14.76 81.2701 14.6 80.7234 14.28C80.1901 13.96 79.7768 13.5133 79.4834 12.94C79.2034 12.3667 79.0634 11.7133 79.0634 10.98V1.74L81.8234 0.44V10.98C81.8234 11.3133 81.8701 11.6 81.9634 11.84C82.0568 12.0667 82.2434 12.24 82.5234 12.36C82.8034 12.48 83.1901 12.54 83.6834 12.54H86.6634V14.76H82.6234ZM76.7434 5.9V3.68H84.7634V5.9H76.7434Z" fill="#222222"/>
<path d="M91.8113 8.06L92.8313 10.88L93.8513 8.06L95.6913 3.68H98.5113L93.5313 15.46C93.2113 16.2333 92.8446 16.84 92.4313 17.28C92.0313 17.7333 91.5713 18.06 91.0513 18.26C90.5446 18.46 89.9579 18.56 89.2913 18.56H43.16V16.34H89.0313C89.3913 16.34 89.6979 16.2533 89.9513 16.08C90.2046 15.92 90.4313 15.6933 90.6313 15.4C90.8313 15.1067 91.0179 14.76 91.1913 14.36L91.4113 13.82L87.1513 3.68H89.9913L91.8113 8.06Z" fill="#222222"/>
</svg>
