<svg width="100" height="19" viewBox="0 0 100 19" fill="none" xmlns="http://www.w3.org/2000/svg">
<path d="M5.8 3.67999C6.48 3.67999 7.10666 3.81332 7.68 4.07999C8.26666 4.33332 8.75333 4.67999 9.14 5.11999V0.23999H34.3434V2.2553L11.86 2V15H9.24L9.18 13.74C8.79333 14.1933 8.30666 14.56 7.72 14.84C7.14666 15.1067 6.50666 15.24 5.8 15.24C4.84 15.24 3.98666 14.9867 3.24 14.48C2.49333 13.96 1.90666 13.2667 1.48 12.4C1.05333 11.52 0.839996 10.54 0.839996 9.45999C0.839996 8.36666 1.05333 7.38666 1.48 6.51999C1.90666 5.63999 2.49333 4.94666 3.24 4.43999C3.98666 3.93332 4.84 3.67999 5.8 3.67999ZM6.48 12.96C7.09333 12.96 7.63333 12.78 8.1 12.42C8.58 12.0467 8.92666 11.5533 9.14 10.94V7.95999C8.92666 7.33332 8.58 6.84666 8.1 6.49999C7.63333 6.13999 7.09333 5.95999 6.48 5.95999C5.92 5.95999 5.42 6.11332 4.98 6.41999C4.54 6.71332 4.2 7.12666 3.96 7.65999C3.72 8.17999 3.6 8.77999 3.6 9.45999C3.6 10.1267 3.72 10.7267 3.96 11.26C4.2 11.78 4.54 12.1933 4.98 12.5C5.42 12.8067 5.92 12.96 6.48 12.96Z" fill="white"/>
<path d="M20.0078 15L19.9078 12.84V7.61999C19.9078 7.00666 19.6945 6.52666 19.2678 6.17999C18.8411 5.83332 18.2545 5.65999 17.5078 5.65999C16.7745 5.65999 16.1811 5.81999 15.7278 6.13999C15.2745 6.44666 15.0145 6.87999 14.9478 7.43999H12.2878C12.3545 6.65332 12.6145 5.97999 13.0678 5.41999C13.5345 4.85999 14.1545 4.43332 14.9278 4.13999C15.7011 3.83332 16.5945 3.67999 17.6078 3.67999C18.6345 3.67999 19.5211 3.83999 20.2678 4.15999C21.0278 4.47999 21.6145 4.94666 22.0278 5.55999C22.4411 6.15999 22.6478 6.89999 22.6478 7.77999V15H20.0078ZM16.3078 15.24C15.5745 15.24 14.9278 15.1 14.3678 14.82C13.8211 14.54 13.3945 14.1533 13.0878 13.66C12.7811 13.1667 12.6278 12.5933 12.6278 11.94C12.6278 10.8067 13.0678 9.92666 13.9478 9.29999C14.8278 8.65999 16.0545 8.33999 17.6278 8.33999H20.2078V10.28H17.5478C16.8545 10.28 16.3078 10.4067 15.9078 10.66C15.5078 10.9133 15.3078 11.2867 15.3078 11.78C15.3078 12.14 15.4545 12.4467 15.7478 12.7C16.0411 12.94 16.4411 13.06 16.9478 13.06C17.6278 13.06 18.2345 12.88 18.7678 12.52C19.3011 12.16 19.7411 11.6733 20.0878 11.06L20.3878 12.96C20.0411 13.72 19.5211 14.2933 18.8278 14.68C18.1345 15.0533 17.2945 15.24 16.3078 15.24Z" fill="white"/>
<path d="M31.2956 9.19999V7.75999C31.2956 7.22666 31.149 6.79999 30.8556 6.47999C30.5623 6.14666 30.129 5.97999 29.5556 5.97999C28.8756 5.97999 28.249 6.21999 27.6756 6.69999C27.1156 7.16666 26.609 7.93999 26.1556 9.01999L25.8356 6.59999C26.169 5.95999 26.5423 5.42666 26.9556 4.99999C27.3823 4.55999 27.849 4.23332 28.3556 4.01999C28.8756 3.79332 29.449 3.67999 30.0756 3.67999C31.2356 3.67999 32.189 4.02666 32.9356 4.71999C33.6823 5.41332 34.0556 6.42666 34.0556 7.75999V9.19999H31.2956ZM23.8756 15V3.91999H26.4956L26.6356 6.07999V15H23.8756Z" fill="white"/>
<path d="M34.3434 15V0.23999H37.1034V5.23999L36.9234 8.47999L39.0434 6.03999L41.2234 3.91999H44.7634L37.1034 11.32V15H34.3434ZM41.7634 15L38.1034 8.47999L40.6034 7.43999L44.9434 15H41.7634Z" fill="white"/>
<path d="M50.06 3.67999C51.0333 3.67999 51.8933 3.93332 52.64 4.43999C53.3867 4.94666 53.9667 5.63999 54.38 6.51999C54.8067 7.38666 55.02 8.36666 55.02 9.45999C55.02 10.54 54.8067 11.52 54.38 12.4C53.9667 13.2667 53.3867 13.96 52.64 14.48C51.8933 14.9867 51.0333 15.24 50.06 15.24C49.38 15.24 48.7533 15.1133 48.18 14.86C47.62 14.5933 47.1467 14.24 46.76 13.8V18.56H44V3.91999H46.66L46.72 5.13999C47.1067 4.68666 47.5867 4.33332 48.16 4.07999C48.7333 3.81332 49.3667 3.67999 50.06 3.67999ZM49.38 12.96C49.9533 12.96 50.4533 12.8067 50.88 12.5C51.32 12.1933 51.66 11.78 51.9 11.26C52.1533 10.7267 52.28 10.1267 52.28 9.45999C52.28 8.77999 52.1533 8.17999 51.9 7.65999C51.66 7.12666 51.32 6.71332 50.88 6.41999C50.4533 6.11332 49.9533 5.95999 49.38 5.95999C48.78 5.95999 48.2467 6.13999 47.78 6.49999C47.3133 6.84666 46.9733 7.31999 46.76 7.91999V10.98C46.9733 11.58 47.3133 12.06 47.78 12.42C48.2467 12.78 48.78 12.96 49.38 12.96Z" fill="white"/>
<path d="M62.7478 15L62.6478 12.84V7.61999C62.6478 7.00666 62.4345 6.52666 62.0078 6.17999C61.5811 5.83332 60.9945 5.65999 60.2478 5.65999C59.5145 5.65999 58.9211 5.81999 58.4678 6.13999C58.0145 6.44666 57.7545 6.87999 57.6878 7.43999H55.0278C55.0945 6.65332 55.3545 5.97999 55.8078 5.41999C56.2745 4.85999 56.8945 4.43332 57.6678 4.13999C58.4411 3.83332 59.3345 3.67999 60.3478 3.67999C61.3745 3.67999 62.2611 3.83999 63.0078 4.15999C63.7678 4.47999 64.3545 4.94666 64.7678 5.55999C65.1811 6.15999 65.3878 6.89999 65.3878 7.77999V15H62.7478ZM59.0478 15.24C58.3145 15.24 57.6678 15.1 57.1078 14.82C56.5611 14.54 56.1345 14.1533 55.8278 13.66C55.5211 13.1667 55.3678 12.5933 55.3678 11.94C55.3678 10.8067 55.8078 9.92666 56.6878 9.29999C57.5678 8.65999 58.7945 8.33999 60.3678 8.33999H62.9478V10.28H60.2878C59.5945 10.28 59.0478 10.4067 58.6478 10.66C58.2478 10.9133 58.0478 11.2867 58.0478 11.78C58.0478 12.14 58.1945 12.4467 58.4878 12.7C58.7811 12.94 59.1811 13.06 59.6878 13.06C60.3678 13.06 60.9745 12.88 61.5078 12.52C62.0411 12.16 62.4811 11.6733 62.8278 11.06L63.1278 12.96C62.7811 13.72 62.2611 14.2933 61.5678 14.68C60.8745 15.0533 60.0345 15.24 59.0478 15.24Z" fill="white"/>
<path d="M74.0356 9.19999V7.75999C74.0356 7.22666 73.889 6.79999 73.5956 6.47999C73.3023 6.14666 72.869 5.97999 72.2956 5.97999C71.6156 5.97999 70.989 6.21999 70.4156 6.69999C69.8556 7.16666 69.349 7.93999 68.8956 9.01999L68.5756 6.59999C68.909 5.95999 69.2823 5.42666 69.6956 4.99999C70.1223 4.55999 70.589 4.23332 71.0956 4.01999C71.6156 3.79332 72.189 3.67999 72.8156 3.67999C73.9756 3.67999 74.929 4.02666 75.6756 4.71999C76.4223 5.41332 76.7956 6.42666 76.7956 7.75999V9.19999H74.0356ZM66.6156 15V3.91999H69.2356L69.3756 6.07999V15H66.6156Z" fill="white"/>
<path d="M83.4634 15C82.7434 15 82.1101 14.84 81.5634 14.52C81.0301 14.2 80.6168 13.7533 80.3234 13.18C80.0434 12.6067 79.9034 11.9533 79.9034 11.22V1.97999L82.6634 0.679991V11.22C82.6634 11.5533 82.7101 11.84 82.8034 12.08C82.8968 12.3067 83.0834 12.48 83.3634 12.6C83.6434 12.72 84.0301 12.78 84.5234 12.78H87.5034V15H83.4634ZM77.5834 6.13999V3.91999H85.6034V6.13999H77.5834Z" fill="white"/>
<path d="M92.6513 8.29999L93.6713 11.12L94.6913 8.29999L96.5313 3.91999H99.3513L94.3713 15.7C94.0513 16.4733 93.6846 17.08 93.2713 17.52C92.8713 17.9733 92.4113 18.3 91.8913 18.5C91.3846 18.7 90.7979 18.8 90.1313 18.8H44V16.58H89.8713C90.2313 16.58 90.5379 16.4933 90.7913 16.32C91.0446 16.16 91.2713 15.9333 91.4713 15.64C91.6713 15.3467 91.8579 15 92.0313 14.6L92.2513 14.06L87.9913 3.91999H90.8313L92.6513 8.29999Z" fill="white"/>
</svg>
