<svg width="23" height="16" viewBox="0 0 23 16" fill="none" xmlns="http://www.w3.org/2000/svg">
<path d="M4.96 3.56C5.64 3.56 6.26667 3.69334 6.84 3.96C7.42667 4.21334 7.91333 4.56 8.3 5V0.120004H11.02V14.88H8.4L8.34 13.62C7.95333 14.0733 7.46667 14.44 6.88 14.72C6.30667 14.9867 5.66667 15.12 4.96 15.12C4 15.12 3.14667 14.8667 2.4 14.36C1.65333 13.84 1.06667 13.1467 0.64 12.28C0.213333 11.4 0 10.42 0 9.34C0 8.24667 0.213333 7.26667 0.64 6.4C1.06667 5.52 1.65333 4.82667 2.4 4.32C3.14667 3.81334 4 3.56 4.96 3.56ZM5.64 12.84C6.25333 12.84 6.79333 12.66 7.26 12.3C7.74 11.9267 8.08667 11.4333 8.3 10.82V7.84C8.08667 7.21334 7.74 6.72667 7.26 6.38C6.79333 6.02 6.25333 5.84 5.64 5.84C5.08 5.84 4.58 5.99334 4.14 6.3C3.7 6.59334 3.36 7.00667 3.12 7.54C2.88 8.06 2.76 8.66 2.76 9.34C2.76 10.0067 2.88 10.6067 3.12 11.14C3.36 11.66 3.7 12.0733 4.14 12.38C4.58 12.6867 5.08 12.84 5.64 12.84Z" fill="white"/>
<path d="M17.5878 -4.29153e-06C18.5611 -4.29153e-06 19.4211 0.253329 20.1678 0.759996C20.9145 1.26666 21.4945 1.96 21.9078 2.84C22.3345 3.70666 22.5478 4.68666 22.5478 5.78C22.5478 6.86 22.3345 7.84 21.9078 8.72C21.4945 9.58666 20.9145 10.28 20.1678 10.8C19.4211 11.3067 18.5611 11.56 17.5878 11.56C16.9078 11.56 16.2811 11.4333 15.7078 11.18C15.1478 10.9133 14.6745 10.56 14.2878 10.12V14.88H11.5278V0.239996H14.1878L14.2478 1.46C14.6345 1.00666 15.1145 0.65333 15.6878 0.399996C16.2611 0.133329 16.8945 -4.29153e-06 17.5878 -4.29153e-06ZM16.9078 9.28C17.4811 9.28 17.9811 9.12666 18.4078 8.82C18.8478 8.51333 19.1878 8.1 19.4278 7.58C19.6811 7.04666 19.8078 6.44666 19.8078 5.78C19.8078 5.1 19.6811 4.5 19.4278 3.98C19.1878 3.44666 18.8478 3.03333 18.4078 2.74C17.9811 2.43333 17.4811 2.28 16.9078 2.28C16.3078 2.28 15.7745 2.46 15.3078 2.82C14.8411 3.16666 14.5011 3.64 14.2878 4.24V7.3C14.5011 7.9 14.8411 8.38 15.3078 8.74C15.7745 9.1 16.3078 9.28 16.9078 9.28Z" fill="white"/>
</svg>
